<svg xmlns="http://www.w3.org/2000/svg" viewBox="0 0 839.61 1072.3"><defs><style>.cls-1{fill:#fff;}</style></defs><g id="Layer_2" data-name="Layer 2"><g id="Layer_1-2" data-name="Layer 1"><path class="cls-1" d="M0,434.65H357a15.18,15.18,0,0,0,15.18-15.13l1.67-404.37a15.18,15.18,0,0,1,25-11.54L515.6,102.1a15.15,15.15,0,0,1,5.4,11.61V416.46a15.19,15.19,0,0,0,15.19,15.19h288.2a15.19,15.19,0,0,1,13.08,22.91l-168,284.56a15.18,15.18,0,0,1-13.18,7.47l-120-.84A15.19,15.19,0,0,0,521,760.94V957.57a15.19,15.19,0,0,1-5.43,11.63L397,1068.72A15.19,15.19,0,0,1,372,1057.08V764.4a15.2,15.2,0,0,0-15.25-15.19L250,749.65h0L0,434.65H0"/><path d="M366,648V511.32a12.67,12.67,0,0,0-12.67-12.67H177.53A12.67,12.67,0,0,0,167.44,519L271.2,655.64a12.65,12.65,0,0,0,10.09,5h72A12.67,12.67,0,0,0,366,648Z"/><path d="M521,647.3V512a13.35,13.35,0,0,1,13.35-13.35H691.8a13.35,13.35,0,0,1,11.79,19.61l-71.83,135.3A13.35,13.35,0,0,1,620,660.65H534.35A13.35,13.35,0,0,1,521,647.3Z"/></g></g></svg>