<svg xmlns="http://www.w3.org/2000/svg" viewBox="0 0 599.04 774.88"><defs><style>.cls-1{fill:#fff;}.cls-1,.cls-2{stroke:red;stroke-miterlimit:10;}</style></defs><g id="Layer_2" data-name="Layer 2"><g id="Layer_1-2" data-name="Layer 1"><path class="cls-1" d="M156.65,545.29,3.29,337.52A14.14,14.14,0,0,1,14.67,315H244.78a14.16,14.16,0,0,0,14.15-14.09L260.1,14.61A14.15,14.15,0,0,1,283.37,3.86l79.36,67a14.13,14.13,0,0,1,5,10.81v217a14.14,14.14,0,0,0,14.14,14.14H584.37a14.15,14.15,0,0,1,12.18,21.34L477.23,536.2A14.16,14.16,0,0,1,465,543.15l-89.59-.55a14.14,14.14,0,0,0-13.28,19.25l33.05,85.36a14.15,14.15,0,0,1-3.25,15.16l-109,107.89a14.14,14.14,0,0,1-24.09-10v-201A14.15,14.15,0,0,0,244.62,545H156.23"/><path class="cls-2" d="M254.38,463.27V378.81a17,17,0,0,0-17-17H152.15a17,17,0,0,0-14.2,26.4l55.79,84.46a17,17,0,0,0,14.2,7.64h29.42A17,17,0,0,0,254.38,463.27Z"/><path class="cls-2" d="M379.49,467.11,379.7,375a13.17,13.17,0,0,1,13.16-13.13h81a13.17,13.17,0,0,1,11.63,19.33l-48.9,92.15a13.15,13.15,0,0,1-11.62,7h-32.3A13.16,13.16,0,0,1,379.49,467.11Z"/></g></g></svg>