<svg xmlns="http://www.w3.org/2000/svg" viewBox="0 0 172.66 65.3"><defs><style>.cls-1{fill:#fff;}.cls-2{fill:#231f20;}</style></defs><g id="Layer_2" data-name="Layer 2"><g id="Layer_1-2" data-name="Layer 1"><path class="cls-1" d="M72.31,61.25c-3.87,0-5.09-3.13-2.72-7L75.84,44c-6.64,3.65-13.46,5.7-19.09,5.7H36.4l-2.77,4.53c-2.37,3.87-7.42,7-11.28,7H3.93c-3.87,0-5.09-3.13-2.72-7L30.1,7c2.36-3.87,7.41-7,11.28-7H87.09C92.8,0,97.15,2.09,99.32,5.79,101.91,2.5,106.3,0,109.76,0h44.93c6.8,0,11.34,2.25,12.88,6.34,1.33,3.55.31,8.19-2.95,13.41a38.86,38.86,0,0,1-7.11,8.46c1.32,3.47.42,8.12-2.78,13.35a40.68,40.68,0,0,1-13.41,13.33,39.78,39.78,0,0,1-20.61,6.36Z"/><path class="cls-1" d="M74.57,63.27c-3.87,0-5.09-3.13-2.72-7L78.1,46C71.47,49.69,64.65,51.75,59,51.75H38.66l-2.77,4.53c-2.36,3.87-7.41,7-11.28,7H6.19c-3.87,0-5.09-3.13-2.72-7L32.36,9c2.36-3.86,7.41-7,11.28-7H89.35c5.71,0,10.06,2.09,12.23,5.79C104.17,4.53,108.57,2,112,2H157c6.8,0,11.34,2.26,12.88,6.35,1.33,3.55.28,8.18-2.94,13.4a40,40,0,0,1-7.11,8.47c1.31,3.46.38,8.11-2.79,13.34a41,41,0,0,1-13.41,13.33A39.65,39.65,0,0,1,123,63.27Z"/><path class="cls-1" d="M76.83,65.3c-3.87,0-5.08-3.14-2.72-7l6.26-10.23c-6.64,3.65-13.46,5.7-19.1,5.7H40.92L38.15,58.3c-2.36,3.86-7.41,7-11.28,7H8.45c-3.86,0-5.08-3.14-2.72-7L34.62,11.05c2.37-3.87,7.42-7,11.28-7H91.62c5.7,0,10.06,2.08,12.23,5.79,2.58-3.29,7-5.79,10.43-5.79h44.93c6.8,0,11.34,2.25,12.88,6.34,1.33,3.55.32,8.18-2.94,13.4A38.91,38.91,0,0,1,162,32.26c1.31,3.46.41,8.12-2.78,13.35a41,41,0,0,1-13.41,13.33,39.78,39.78,0,0,1-20.61,6.36Z"/><path class="cls-2" d="M82.63,7H43.85c-3.73,0-8.6,3-10.88,6.75L8.65,53.52c-.24.4-.12.73.29.73H22.62c2.21,0,5.11-1.79,6.46-4l4.15-6.79a1.61,1.61,0,0,1,1.18-.73H60.78c9.66.14,23-8.12,28.78-17.86C95.68,15.09,92.43,6.9,82.63,7ZM68.74,27.33a8,8,0,0,1-4.42,1.54H42.88c-.4,0-.53-.33-.28-.73l4-6.59a1.58,1.58,0,0,1,1.18-.73H69.57A1.93,1.93,0,0,1,71.65,22a3.09,3.09,0,0,1-.54,2.85A8.51,8.51,0,0,1,68.74,27.33Zm78.22,3c-.38-.21-.06-.89.6-1.24a26.49,26.49,0,0,0,10.12-9.38c5.13-8.23.94-12.69-7.27-12.66H111c-3,0-7,2.45-8.82,5.48l-22,35.92c-2,3.23-1,5.85,2.27,5.85H125c8.13,0,17.8-4.43,22.74-12.69C151.07,36.1,150.42,32.21,147,30.28ZM116.59,19a1.58,1.58,0,0,1,1.18-.73h20.61c1.58,0,1.92,1.58,1,3.16s-3.26,3.2-4.84,3.2H113.88c-.4,0-.53-.33-.28-.73ZM126.67,43h-24c-.41,0-.53-.33-.29-.73l3-4.87a1.57,1.57,0,0,1,1.18-.73h24c1.58,0,1.92,1.58,1,3.17S128.25,43,126.67,43Z"/></g></g></svg>